<?xml version="1.0" encoding="utf-8"?><svg xmlns="http://www.w3.org/2000/svg" xmlns:xlink="http://www.w3.org/1999/xlink" width="1536" height="707" preserveAspectRatio="xMidYMid" viewBox="0 0 1536 707" style="z-index:1;display:block;background-color:rgb(255, 255, 255);animation-play-state:paused" ><g transform="translate(768,353.5) scale(1,1) translate(-768,-353.5)" style="transform:matrix(1, 0, 0, 1, 0, 0);animation-play-state:paused" ><path id="path0" d="M 585.7400102542946 544.5591434753402
c 0 21.705667462350686 -5.310961187596444 6.234606611526261 -11.545567799122704 6.234606611526261
S 562.6488746560491 566.2648109376909 562.6488746560491 544.5591434753402
s 5.310961187596444 -6.234606611526261 11.545567799122704 -6.234606611526261
S 585.7400102542946 522.8534760129895 585.7400102542946 544.5591434753402
z" fill="none" stroke="none" style="animation-play-state:paused" ></path>


<circle cx="0" cy="0" r="4.83919850890594" fill="#ff708e" opacity="0.9" transform="translate(585.6732788085938 540.7738647460938)" style="opacity:0.9;animation-play-state:paused" ></circle>
<path id="path1" d="M 31.272069634653146 212.88068449780494
c 0 19.875654787538377 -4.863192128865773 5.708964673016343 -10.572156801882116 5.708964673016343
S 10.127756030888914 232.7563392853433 10.127756030888914 212.88068449780494
s 4.863192128865773 -5.708964673016343 10.572156801882116 -5.708964673016343
S 31.272069634653146 193.00502971026657 31.272069634653146 212.88068449780494
z" fill="none" stroke="none" style="animation-play-state:paused" ></path>


<circle cx="0" cy="0" r="5.795163760773202" fill="#e0ff77" opacity="0.9" transform="translate(10.128274917602539 212.61231994628906)" style="opacity:0.9;animation-play-state:paused" ></circle>
<path id="path2" d="M 725.9702978538223 320.8381997363593
c 0 35.363768997701165 -8.652837095182198 10.15767832912693 -18.81051542430913 10.15767832912693
S 688.349267005204 356.2019687340605 688.349267005204 320.8381997363593
s 8.652837095182198 -10.15767832912693 18.81051542430913 -10.15767832912693
S 725.9702978538223 285.4744307386581 725.9702978538223 320.8381997363593
z" fill="none" stroke="none" style="animation-play-state:paused" ></path>


<circle cx="0" cy="0" r="5.30729066389308" fill="#9df871" opacity="0.9" transform="translate(719.9944458007812 302.720458984375)" style="opacity:0.9;animation-play-state:paused" ></circle>
<path id="path3" d="M 1109.0735173722096 327.7308552417993
c 0 21.653553232645656 -5.298209833519681 6.21963763065354 -11.51784746417322 6.21963763065354
S 1086.0378224438632 349.38440847444497 1086.0378224438632 327.7308552417993
s 5.298209833519681 -6.21963763065354 11.51784746417322 -6.21963763065354
S 1109.0735173722096 306.07730200915364 1109.0735173722096 327.7308552417993
z" fill="none" stroke="none" style="animation-play-state:paused" ></path>


<circle cx="0" cy="0" r="4.399618998139761" fill="#de9dd6" opacity="0.9" transform="translate(1103.879150390625 337.64532470703125)" style="opacity:0.9;animation-play-state:paused" ></circle>
<path id="path4" d="M 941.1358012718941 407.653440153003
c 0 23.986028688716612 -5.868921913196617 6.889603985056899 -12.758525898253517 6.889603985056899
S 915.6187494753871 431.6394688417196 915.6187494753871 407.653440153003
s 5.868921913196617 -6.889603985056899 12.758525898253517 -6.889603985056899
S 941.1358012718941 383.6674114642864 941.1358012718941 407.653440153003
z" fill="none" stroke="none" style="animation-play-state:paused" ></path>


<circle cx="0" cy="0" r="4.165897185419233" fill="#9df871" opacity="0.9" transform="translate(925.9265747070312 415.1925048828125)" style="opacity:0.9;animation-play-state:paused" ></circle>
<path id="path5" d="M 1157.6714034346685 86.39712066356361
c 0 29.971594280714033 -7.333475196344922 8.608862187013605 -15.942337383358527 8.608862187013605
S 1125.7867286679514 116.36871494427764 1125.7867286679514 86.39712066356361
s 7.333475196344922 -8.608862187013605 15.942337383358527 -8.608862187013605
S 1157.6714034346685 56.42552638284958 1157.6714034346685 86.39712066356361
z" fill="none" stroke="none" style="animation-play-state:paused" ></path>


<circle cx="0" cy="0" r="5.337612714752485" fill="#de9dd6" opacity="0.9" transform="translate(1140.026611328125 77.52503967285156)" style="opacity:0.9;animation-play-state:paused" ></circle>
<path id="path6" d="M 272.08367981437533 355.06577931139583
c 0 21.062104079055075 -5.153493551258157 6.049753299303054 -11.20324685056121 6.049753299303054
S 249.67718611325293 376.1278833904509 249.67718611325293 355.06577931139583
s 5.153493551258157 -6.049753299303054 11.20324685056121 -6.049753299303054
S 272.08367981437533 334.00367523234075 272.08367981437533 355.06577931139583
z" fill="none" stroke="none" style="animation-play-state:paused" ></path>


<circle cx="0" cy="0" r="5.245142026036072" fill="#9df871" opacity="0.9" transform="translate(263.00494384765625 348.4593200683594)" style="opacity:0.9;animation-play-state:paused" ></circle>
<path id="path7" d="M 884.3822803134763 525.0923955111156
c 0 32.59819535442021 -7.976154182464519 9.363311431588786 -17.339465614053303 9.363311431588786
S 849.7033490853696 557.6905908655358 849.7033490853696 525.0923955111156
s 7.976154182464519 -9.363311431588786 17.339465614053303 -9.363311431588786
S 884.3822803134763 492.49420015669534 884.3822803134763 525.0923955111156
z" fill="none" stroke="none" style="animation-play-state:paused" ></path>


<circle cx="0" cy="0" r="7.073859988558522" fill="#de9dd6" opacity="0.9" transform="translate(878.0593872070312 508.9520568847656)" style="opacity:0.9;animation-play-state:paused" ></circle>
<path id="path8" d="M 1359.3272323066242 225.42370024111028
c 0 31.02819401828437 -7.592004919367452 8.912353600996575 -16.504358520364026 8.912353600996575
S 1326.318515265896 256.45189425939463 1326.318515265896 225.42370024111028
s 7.592004919367452 -8.912353600996575 16.504358520364026 -8.912353600996575
S 1359.3272323066242 194.3955062228259 1359.3272323066242 225.42370024111028
z" fill="none" stroke="none" style="animation-play-state:paused" ></path>


<circle cx="0" cy="0" r="6.361459583159354" fill="#de9dd6" opacity="0.9" transform="translate(1326.67138671875 234.8083953857422)" style="opacity:0.9;animation-play-state:paused" ></circle>
<path id="path9" d="M 1124.3898438891802 527.375168015585
c 0 36.52397298412306 -8.936716793987555 10.49092841033322 -19.427645204320775 10.49092841033322
S 1085.5345534805388 563.899140999708 1085.5345534805388 527.375168015585
s 8.936716793987555 -10.49092841033322 19.427645204320775 -10.49092841033322
S 1124.3898438891802 490.85119503146194 1124.3898438891802 527.375168015585
z" fill="none" stroke="none" style="animation-play-state:paused" ></path>


<circle cx="0" cy="0" r="7.546873530950358" fill="#51cacc" opacity="0.9" transform="translate(1124.2513427734375 534.36865234375)" style="opacity:0.9;animation-play-state:paused" ></circle>
<path id="path10" d="M 257.51708694075006 78.88698571534293
c 0 21.532631016964988 -5.268622482874411 6.184904653809093 -11.453527136683503 6.184904653809093
S 234.61003266738305 100.41961673230792 234.61003266738305 78.88698571534293
s 5.268622482874411 -6.184904653809093 11.453527136683503 -6.184904653809093
S 257.51708694075006 57.354354698377946 257.51708694075006 78.88698571534293
z" fill="none" stroke="none" style="animation-play-state:paused" ></path>


<circle cx="0" cy="0" r="7.801805987367179" fill="#51cacc" opacity="0.9" transform="translate(252.79891967773438 68.65174102783203)" style="opacity:0.9;animation-play-state:paused" ></circle>
<path id="path11" d="M 743.7283686466816 186.95125571343215
c 0 28.769412525078533 -7.039324341242619 8.263554661458727 -15.302879002701346 8.263554661458727
S 713.1226106412788 215.72066823851068 713.1226106412788 186.95125571343215
s 7.039324341242619 -8.263554661458727 15.302879002701346 -8.263554661458727
S 743.7283686466816 158.1818431883536 743.7283686466816 186.95125571343215
z" fill="none" stroke="none" style="animation-play-state:paused" ></path>


<circle cx="0" cy="0" r="5.956163534327124" fill="#de9dd6" opacity="0.9" transform="translate(719.5834350585938 200.49667358398438)" style="opacity:0.9;animation-play-state:paused" ></circle>
<path id="path12" d="M 160.06247116261937 637.9863180444787
c 0 23.107476502948533 -5.653957016678895 6.637253889144791 -12.291210905823686 6.637253889144791
S 135.48004935097202 661.0937945474273 135.48004935097202 637.9863180444787
s 5.653957016678895 -6.637253889144791 12.291210905823686 -6.637253889144791
S 160.06247116261937 614.8788415415302 160.06247116261937 637.9863180444787
z" fill="none" stroke="none" style="animation-play-state:paused" ></path>


<circle cx="0" cy="0" r="6.787648953901218" fill="#e0ff77" opacity="0.9" transform="translate(147.2618408203125 644.6553955078125)" style="opacity:0.9;animation-play-state:paused" ></circle>
<path id="path13" d="M 1395.5561325395129 660.0791217989143
c 0 31.255079634186593 -7.647519484960548 8.977522873649342 -16.62504235860989 8.977522873649342
S 1362.3060478222933 691.3342014331009 1362.3060478222933 660.0791217989143
s 7.647519484960548 -8.977522873649342 16.62504235860989 -8.977522873649342
S 1395.5561325395129 628.8240421647278 1395.5561325395129 660.0791217989143
z" fill="none" stroke="none" style="animation-play-state:paused" ></path>


<circle cx="0" cy="0" r="7.013167148376161" fill="#51cacc" opacity="0.9" transform="translate(1388.763427734375 645.1767578125)" style="opacity:0.9;animation-play-state:paused" ></circle>
<path id="path14" d="M 519.6879343367582 656.0519077686605
c 0 28.023513379121056 -6.856817103401959 8.049307034428388 -14.906124137830348 8.049307034428388
S 489.8756860610975 684.0754211477815 489.8756860610975 656.0519077686605
s 6.856817103401959 -8.049307034428388 14.906124137830348 -8.049307034428388
S 519.6879343367582 628.0283943895395 519.6879343367582 656.0519077686605
z" fill="none" stroke="none" style="animation-play-state:paused" ></path>


<circle cx="0" cy="0" r="5.024147396666498" fill="#e0ff77" opacity="0.9" transform="translate(505.763427734375 647.90673828125)" style="opacity:0.9;animation-play-state:paused" ></circle>
<path id="path15" d="M 1437.9980648534172 403.5067685570604
c 0 19.623932876011786 -4.8016005973220315 5.636661570769343 -10.438262168091374 5.636661570769343
S 1417.1215405172345 423.1307014330722 1417.1215405172345 403.5067685570604
s 4.8016005973220315 -5.636661570769343 10.438262168091374 -5.636661570769343
S 1437.9980648534172 383.8828356810486 1437.9980648534172 403.5067685570604
z" fill="none" stroke="none" style="animation-play-state:paused" ></path>


<circle cx="0" cy="0" r="4.8636116036508845" fill="#51cacc" opacity="0.9" transform="translate(1434.6571044921875 393.4686584472656)" style="opacity:0.9;animation-play-state:paused" ></circle>
<path id="path16" d="M 178.1097346003939 110.52113575021869
c 0 32.93033190683504 -8.057421636778786 9.458712356218577 -17.51613399299736 9.458712356218577
S 143.07746661439916 143.45146765705374 143.07746661439916 110.52113575021869
s 8.057421636778786 -9.458712356218577 17.51613399299736 -9.458712356218577
S 178.1097346003939 77.59080384338364 178.1097346003939 110.52113575021869
z" fill="none" stroke="none" style="animation-play-state:paused" ></path>


<circle cx="0" cy="0" r="6.702550662517501" fill="#e0ff77" opacity="0.9" transform="translate(144.28546142578125 125.29780578613281)" style="opacity:0.9;animation-play-state:paused" ></circle>
<path id="path17" d="M 1522.8057005271273 599.003780649556
c 0 27.266689870156856 -6.671636883123485 7.831921558449309 -14.503558441572794 7.831921558449309
S 1493.7985836439818 626.2704705197128 1493.7985836439818 599.003780649556
s 6.671636883123485 -7.831921558449309 14.503558441572794 -7.831921558449309
S 1522.8057005271273 571.7370907793992 1522.8057005271273 599.003780649556
z" fill="none" stroke="none" style="animation-play-state:paused" ></path>


<circle cx="0" cy="0" r="7.6195505555216005" fill="#ff708e" opacity="0.9" transform="translate(1522.781005859375 601.6997680664062)" style="opacity:0.9;animation-play-state:paused" ></circle>
<path id="path18" d="M 197.683210566428 639.3229482462759
c 0 24.13487561268492 -5.905341905231415 6.932357888749923 -12.837699793981338 6.932357888749923
S 172.00781097846533 663.4578238589609 172.00781097846533 639.3229482462759
s 5.905341905231415 -6.932357888749923 12.837699793981338 -6.932357888749923
S 197.683210566428 615.188072633591 197.683210566428 639.3229482462759
z" fill="none" stroke="none" style="animation-play-state:paused" ></path>


<circle cx="0" cy="0" r="6.739948767549155" fill="#ff708e" opacity="0.9" transform="translate(172.0149383544922 637.9443969726562)" style="opacity:0.9;animation-play-state:paused" ></circle>
<path id="path19" d="M 212.5366257584573 424.9451520636631
c 0 27.397310945176702 -6.7035973589262134 7.869440377869904 -14.573037736796117 7.869440377869904
S 183.39055028486504 452.3424630088398 183.39055028486504 424.9451520636631
s 6.7035973589262134 -7.869440377869904 14.573037736796117 -7.869440377869904
S 212.5366257584573 397.5478411184864 212.5366257584573 424.9451520636631
z" fill="none" stroke="none" style="animation-play-state:paused" ></path>


<circle cx="0" cy="0" r="4.598038546056239" fill="#e0ff77" opacity="0.9" transform="translate(212.53451538085938 424.1614990234375)" style="opacity:0.9;animation-play-state:paused" ></circle>
<path id="path20" d="M 276.80206619209855 544.4294870379277
c 0 24.90258256932453 -6.093185096749618 7.152869461401727 -13.246054558151346 7.152869461401727
S 250.30995707579586 569.3320696072523 250.30995707579586 544.4294870379277
s 6.093185096749618 -7.152869461401727 13.246054558151346 -7.152869461401727
S 276.80206619209855 519.5269044686032 276.80206619209855 544.4294870379277
z" fill="none" stroke="none" style="animation-play-state:paused" ></path>


<circle cx="0" cy="0" r="4.684116269726855" fill="#51cacc" opacity="0.9" transform="translate(250.93399047851562 534.447265625)" style="opacity:0.9;animation-play-state:paused" ></circle>
<path id="path21" d="M 493.8780738302381 573.4794934429443
c 0 23.09439553807937 -5.650756355061974 6.633496590724926 -12.2842529457869 6.633496590724926
S 469.3095679386644 596.5738889810237 469.3095679386644 573.4794934429443
s 5.650756355061974 -6.633496590724926 12.2842529457869 -6.633496590724926
S 493.8780738302381 550.3850979048649 493.8780738302381 573.4794934429443
z" fill="none" stroke="none" style="animation-play-state:paused" ></path>


<circle cx="0" cy="0" r="5.613450562868967" fill="#ff708e" opacity="0.9" transform="translate(473.95562744140625 562.1710205078125)" style="opacity:0.9;animation-play-state:paused" ></circle>
<path id="path22" d="M 1182.8323865918744 30.135581924173508
c 0 35.18445391105333 -8.608962127172623 10.106172931898298 -18.71513505907092 10.106172931898298
S 1145.4021164737326 65.32003583522683 1145.4021164737326 30.135581924173508
s 8.608962127172623 -10.106172931898298 18.71513505907092 -10.106172931898298
S 1182.8323865918744 -5.048871986879824 1182.8323865918744 30.135581924173508
z" fill="none" stroke="none" style="animation-play-state:paused" ></path>


<circle cx="0" cy="0" r="7.831987435948114" fill="#de9dd6" opacity="0.9" transform="translate(1162.181396484375 40.53237533569336)" style="opacity:0.9;animation-play-state:paused" ></circle>
<path id="path23" d="M 593.5563822925754 584.3022377623382
c 0 23.40581743054194 -5.726955328749622 6.7229475598365145 -12.449902888586138 6.7229475598365145
S 568.6565765154031 607.7080551928801 568.6565765154031 584.3022377623382
s 5.726955328749622 -6.7229475598365145 12.449902888586138 -6.7229475598365145
S 593.5563822925754 560.8964203317963 593.5563822925754 584.3022377623382
z" fill="none" stroke="none" style="animation-play-state:paused" ></path>


<circle cx="0" cy="0" r="7.110798684325006" fill="#de9dd6" opacity="0.9" transform="translate(592.5929565429688 573.4783325195312)" style="opacity:0.9;animation-play-state:paused" ></circle>
<path id="path24" d="M 396.31070214039346 430.6462687286643
c 0 31.296277202128035 -7.657599740946221 8.98935621763252 -16.646955958578744 8.98935621763252
S 363.01679022323594 461.94254593079233 363.01679022323594 430.6462687286643
s 7.657599740946221 -8.98935621763252 16.646955958578744 -8.98935621763252
S 396.31070214039346 399.3499915265363 396.31070214039346 430.6462687286643
z" fill="none" stroke="none" style="animation-play-state:paused" ></path>


<circle cx="0" cy="0" r="6.474961767865646" fill="#51cacc" opacity="0.9" transform="translate(363.3841552734375 440.2309875488281)" style="opacity:0.9;animation-play-state:paused" ></circle>
<path id="path25" d="M 1528.0022475669587 411.4802616925359
c 0 25.26286502100306 -6.1813393136496835 7.256354846458326 -13.437694160108009 7.256354846458326
S 1501.1268592467425 436.74312671353897 1501.1268592467425 411.4802616925359
s 6.1813393136496835 -7.256354846458326 13.437694160108009 -7.256354846458326
S 1528.0022475669587 386.21739667153287 1528.0022475669587 411.4802616925359
z" fill="none" stroke="none" style="animation-play-state:paused" ></path>


<circle cx="0" cy="0" r="5.977570936491606" fill="#ff708e" opacity="0.9" transform="translate(1505.92724609375 424.0621643066406)" style="opacity:0.9;animation-play-state:paused" ></circle>
<path id="path26" d="M 520.5989486166187 456.1003913862306
c 0 21.328521697970412 -5.21868084099276 6.126277508991502 -11.344958349984262 6.126277508991502
S 497.90903191665024 477.42891308420104 497.90903191665024 456.1003913862306
s 5.21868084099276 -6.126277508991502 11.344958349984262 -6.126277508991502
S 520.5989486166187 434.7718696882602 520.5989486166187 456.1003913862306
z" fill="none" stroke="none" style="animation-play-state:paused" ></path>


<circle cx="0" cy="0" r="7.3881131992342475" fill="#51cacc" opacity="0.9" transform="translate(519.93115234375 446.947021484375)" style="opacity:0.9;animation-play-state:paused" ></circle>
<path id="path27" d="M 477.5147488211209 175.79092934514475
c 0 19.302708615417806 -4.723003171857548 5.544395027832775 -10.267398199690323 5.544395027832775
S 456.9799524217403 195.09363796056255 456.9799524217403 175.79092934514475
s 4.723003171857548 -5.544395027832775 10.267398199690323 -5.544395027832775
S 477.5147488211209 156.48822072972695 477.5147488211209 175.79092934514475
z" fill="none" stroke="none" style="animation-play-state:paused" ></path>


<circle cx="0" cy="0" r="4.787029270142203" fill="#51cacc" opacity="0.9" transform="translate(472.7601013183594 167.05923461914062)" style="opacity:0.9;animation-play-state:paused" ></circle>
<path id="path28" d="M 1191.6960363121752 492.48070019562203
c 0 36.818149125111766 -9.008696062527346 10.575425812532103 -19.58412187505945 10.575425812532103
S 1152.5277925620562 529.2988493207338 1152.5277925620562 492.48070019562203
s 9.008696062527346 -10.575425812532103 19.58412187505945 -10.575425812532103
S 1191.6960363121752 455.6625510705103 1191.6960363121752 492.48070019562203
z" fill="none" stroke="none" style="animation-play-state:paused" ></path>


<circle cx="0" cy="0" r="5.843396425238709" fill="#de9dd6" opacity="0.9" transform="translate(1152.598876953125 497.67919921875)" style="opacity:0.9;animation-play-state:paused" ></circle>
<path id="path29" d="M 1270.2765583964776 272.4954999569969
c 0 19.701882428741687 -4.820673360224029 5.659051335915166 -10.479724696139193 5.659051335915166
S 1249.3171090041994 292.1973823857386 1249.3171090041994 272.4954999569969
s 4.820673360224029 -5.659051335915166 10.479724696139193 -5.659051335915166
S 1270.2765583964776 252.79361752825523 1270.2765583964776 272.4954999569969
z" fill="none" stroke="none" style="animation-play-state:paused" ></path>


<circle cx="0" cy="0" r="4.6229984553405" fill="#de9dd6" opacity="0.9" transform="translate(1270.2742919921875 271.8958435058594)" style="opacity:0.9;animation-play-state:paused" ></circle></g></svg>